<svg xmlns="http://www.w3.org/2000/svg" width="273" height="261" fill="none" viewBox="0 0 273 261"><path fill="#36A18A" d="M162.049 0C101.048 0 51.4199 47.413 51.4199 105.692C51.4199 163.971 101.048 211.386 162.049 211.386C223.052 211.386 272.68 163.971 272.68 105.692C272.68 47.413 223.052 0 162.049 0Z"/><path fill="#131E26" d="M176.283 106.603L192.455 130.906L198.777 115.688L215.904 141.279L209.846 155.781C207.679 160.75 203.194 163.232 196.461 163.232C190.149 163.232 185.66 161.192 183.008 157.067L162.763 126.777L159.093 121.234L144.75 99.7714L141.086 94.2748L133.677 83.1858L124.362 74.0046L118.453 62.8727C121.385 58.3065 126.138 56 132.798 56C136.124 56 138.977 56.5747 141.221 57.7729C143.533 58.9692 145.505 60.701 147.062 62.8727L154.536 74.0046L158.213 79.5481L172.543 101.099L176.283 106.603Z"/><path fill="#131E26" d="M214.877 77.1537L223.098 57.4172H250.825L231.934 102.741L214.877 77.1537Z"/><path fill="#fff" d="M229.142 109.705L229.076 109.617L212.023 83.9833L207.679 77.4644L197.959 62.8727C196.322 60.701 194.353 58.9692 192.117 57.7729C189.803 56.5747 187.025 56 183.622 56C177.028 56 172.206 58.3065 169.288 62.8727L161.877 73.9616L176.283 95.5141L184.508 83.1858L197.279 102.346L201.627 108.865L218.754 134.452L218.822 134.541L229.142 109.705Z"/><path fill="#131E26" d="M118.386 117.155L124.096 130.906L141.086 105.356L155.355 126.822L135.169 157.067C133.819 159.063 131.912 160.613 129.334 161.68C126.75 162.701 123.963 163.232 121.045 163.232C113.709 163.232 109.083 160.75 107.18 155.781L101.543 142.345L98.6848 135.517L87.6814 109.22L84.8314 102.385L66 57.4172H93.5227L101.674 77.0208L104.526 83.8505L115.536 110.327L118.386 117.155Z"/><path fill="#F8981D" d="M104.358 240.851C100.761 240.851 97.8436 238.064 97.8436 234.627C97.8436 231.189 100.761 228.404 104.358 228.404C107.957 228.404 110.875 231.189 110.875 234.627C110.875 238.064 107.957 240.851 104.358 240.851ZM104.358 213.759C92.2949 213.759 82.5171 223.103 82.5171 234.627C82.5171 246.152 92.2949 255.496 104.358 255.496C116.423 255.496 126.201 246.152 126.201 234.627C126.201 223.103 116.423 213.759 104.358 213.759Z"/><path fill="#F8981D" d="M248 175C227.708 201.748 195.588 215.358 159.282 215.358C98.0065 215.358 48.1542 165.985 48.1542 105.295C48.1542 102.164 48.2884 99.0643 48.5468 96H46.5776H33.7283H3V108.044H33.4185C34.3755 151.586 57.9668 189.697 92.9887 211.268C96.2326 209.783 99.8416 208.946 103.644 208.946C114.824 208.946 124.339 216.111 127.774 226.046C137.847 228.626 148.405 230 159.282 230C163.39 230 167.449 229.795 171.458 229.412C175.268 220.207 184.41 213.705 195.059 213.705C200.977 213.705 206.425 215.718 210.758 219.081C229.813 210.588 246.374 197.543 259 181.34L248 175Z"/><path fill="#F8981D" d="M193.843 245.092C190.244 245.092 187.329 242.305 187.329 238.868C187.329 235.43 190.244 232.645 193.843 232.645C197.44 232.645 200.358 235.43 200.358 238.868C200.358 242.305 197.44 245.092 193.843 245.092ZM193.843 218C181.78 218 172 227.341 172 238.868C172 250.393 181.78 259.735 193.843 259.735C205.906 259.735 215.686 250.393 215.686 238.868C215.686 227.341 205.906 218 193.843 218Z"/><path fill="#F8981D" d="M29.4419 118.886H3.19177V113.386H29.4419V118.886Z"/><path fill="#fff" d="M29.4419 128.761H9.13333V123.261H29.4419V128.761Z"/></svg>