<svg width="431" height="112" viewBox="0 0 431 112" fill="none" xmlns="http://www.w3.org/2000/svg">
<path d="M96.688 40.608L79.12 108H59.248L48.496 63.648L37.36 108H17.488L0.4 40.608H17.968L27.664 89.664L39.664 40.608H57.712L69.232 89.664L79.024 40.608H96.688Z" fill="#151946"/>
<path d="M140.744 108.768C136.072 108.768 131.912 107.968 128.264 106.368C124.616 104.768 121.736 102.592 119.624 99.84C117.512 97.024 116.328 93.888 116.072 90.432H132.296C132.488 92.288 133.352 93.792 134.888 94.944C136.424 96.096 138.312 96.672 140.552 96.672C142.6 96.672 144.168 96.288 145.256 95.52C146.408 94.688 146.984 93.632 146.984 92.352C146.984 90.816 146.184 89.696 144.584 88.992C142.984 88.224 140.392 87.392 136.808 86.496C132.968 85.6 129.768 84.672 127.208 83.712C124.648 82.688 122.44 81.12 120.584 79.008C118.728 76.832 117.8 73.92 117.8 70.272C117.8 67.2 118.632 64.416 120.296 61.92C122.024 59.36 124.52 57.344 127.784 55.872C131.112 54.4 135.048 53.664 139.592 53.664C146.312 53.664 151.592 55.328 155.432 58.656C159.336 61.984 161.576 66.4 162.152 71.904H146.984C146.728 70.048 145.896 68.576 144.488 67.488C143.144 66.4 141.352 65.856 139.112 65.856C137.192 65.856 135.72 66.24 134.696 67.008C133.672 67.712 133.16 68.704 133.16 69.984C133.16 71.52 133.96 72.672 135.56 73.44C137.224 74.208 139.784 74.976 143.24 75.744C147.208 76.768 150.44 77.792 152.936 78.816C155.432 79.776 157.608 81.376 159.464 83.616C161.384 85.792 162.376 88.736 162.44 92.448C162.44 95.584 161.544 98.4 159.752 100.896C158.024 103.328 155.496 105.248 152.168 106.656C148.904 108.064 145.096 108.768 140.744 108.768Z" fill="#151946"/>
<path d="M218.448 80.352C218.448 81.888 218.352 83.488 218.16 85.152H181.008C181.264 88.48 182.32 91.04 184.176 92.832C186.096 94.56 188.432 95.424 191.184 95.424C195.28 95.424 198.128 93.696 199.728 90.24H217.2C216.304 93.76 214.672 96.928 212.304 99.744C210 102.56 207.088 104.768 203.568 106.368C200.048 107.968 196.112 108.768 191.76 108.768C186.512 108.768 181.84 107.648 177.744 105.408C173.648 103.168 170.448 99.968 168.144 95.808C165.84 91.648 164.688 86.784 164.688 81.216C164.688 75.648 165.808 70.784 168.048 66.624C170.352 62.464 173.552 59.264 177.648 57.024C181.744 54.784 186.448 53.664 191.76 53.664C196.944 53.664 201.552 54.752 205.584 56.928C209.616 59.104 212.752 62.208 214.992 66.24C217.296 70.272 218.448 74.976 218.448 80.352ZM201.648 76.032C201.648 73.216 200.688 70.976 198.768 69.312C196.848 67.648 194.448 66.816 191.568 66.816C188.816 66.816 186.48 67.616 184.56 69.216C182.704 70.816 181.552 73.088 181.104 76.032H201.648Z" fill="#151946"/>
<path d="M290.688 76.12C290.688 70.616 291.712 65.784 293.76 61.624C295.872 57.464 298.72 54.264 302.304 52.024C305.888 49.784 309.888 48.664 314.304 48.664C318.08 48.664 321.376 49.432 324.192 50.968C327.072 52.504 329.28 54.52 330.816 57.016V49.432H347.232V103H330.816V95.416C329.216 97.912 326.976 99.928 324.096 101.464C321.28 103 317.984 103.768 314.208 103.768C309.856 103.768 305.888 102.648 302.304 100.408C298.72 98.104 295.872 94.872 293.76 90.712C291.712 86.488 290.688 81.624 290.688 76.12ZM330.816 76.216C330.816 72.12 329.664 68.888 327.36 66.52C325.12 64.152 322.368 62.968 319.104 62.968C315.84 62.968 313.056 64.152 310.752 66.52C308.512 68.824 307.392 72.024 307.392 76.12C307.392 80.216 308.512 83.48 310.752 85.912C313.056 88.28 315.84 89.464 319.104 89.464C322.368 89.464 325.12 88.28 327.36 85.912C329.664 83.544 330.816 80.312 330.816 76.216ZM375.524 58.36C377.444 55.416 379.844 53.112 382.724 51.448C385.604 49.72 388.804 48.856 392.324 48.856V66.232H387.812C383.716 66.232 380.644 67.128 378.596 68.92C376.548 70.648 375.524 73.72 375.524 78.136V103H359.108V49.432H375.524V58.36ZM430.027 89.08V103H421.675C415.723 103 411.083 101.56 407.755 98.68C404.427 95.736 402.763 90.968 402.763 84.376V63.064H396.235V49.432H402.763V36.376H419.179V49.432H429.931V63.064H419.179V84.568C419.179 86.168 419.563 87.32 420.331 88.024C421.099 88.728 422.379 89.08 424.171 89.08H430.027Z" fill="#36A18A"/>
<path d="M225.168 77.208C225.168 70.552 226.608 64.632 229.488 59.448C232.368 54.2 236.368 50.136 241.488 47.256C246.672 44.312 252.528 42.84 259.056 42.84C267.056 42.84 273.904 44.952 279.6 49.176C285.296 53.4 289.104 59.16 291.024 66.456H272.976C271.632 63.64 269.712 61.496 267.216 60.024C264.784 58.552 262 57.816 258.864 57.816C253.808 57.816 249.712 59.576 246.576 63.096C243.44 66.616 241.872 71.32 241.872 77.208C241.872 83.096 243.44 87.8 246.576 91.32C249.712 94.84 253.808 96.6 258.864 96.6C262 96.6 264.784 95.864 267.216 94.392C269.712 92.92 271.632 90.776 272.976 87.96H291.024C289.104 95.256 285.296 101.016 279.6 105.24C273.904 109.4 267.056 111.48 259.056 111.48C252.528 111.48 246.672 110.04 241.488 107.16C236.368 104.216 232.368 100.152 229.488 94.968C226.608 89.784 225.168 83.864 225.168 77.208Z" fill="#36A18A"/>
<path fill-rule="evenodd" clip-rule="evenodd" d="M346.25 46.9906C347.263 47.0397 348.285 46.9023 349.28 46.4409C349.667 46.2445 350.059 46.0188 350.415 45.6163C350.611 45.3905 350.802 45.0666 350.867 44.5855C351.015 43.5941 351.006 42.5241 350.993 41.4933C350.954 39.8736 350.837 38.2735 350.676 36.7028C350.315 33.2277 349.733 29.8607 348.911 26.7979C348.389 24.8836 347.763 23.0872 347.011 21.6049C346.82 21.2122 346.607 20.8098 346.342 20.7607C346.198 20.7116 346.042 20.8588 345.981 21.1632C345.92 21.4773 345.946 21.8405 345.998 22.1546C346.628 25.7573 347.259 29.3698 347.702 33.1099C347.811 34.0425 347.907 34.9849 347.972 35.9371C348.046 37.0562 348.111 38.2342 347.968 39.3337C347.898 39.8834 347.711 40.3153 347.489 40.5706C347.115 41.0123 346.694 41.1792 346.276 41.3068C345.246 41.5817 344.211 41.4933 343.177 41.3559C342.033 41.189 340.89 40.9043 339.751 40.5902C339.585 40.5509 339.394 40.5804 339.272 40.8651C339.164 41.1105 339.177 41.5129 339.238 41.8074C339.346 42.2983 339.551 42.632 339.751 42.9167C340.629 44.2518 341.611 45.1745 342.629 45.8224C343.803 46.5783 345.024 46.9317 346.25 46.9906Z" fill="#F8981D"/>
<path fill-rule="evenodd" clip-rule="evenodd" d="M288.381 44.1634C288.572 44.2714 288.776 44.1732 288.95 43.9572C289.602 43.1523 290.246 42.3081 290.902 41.5129C295.915 35.4953 301.314 31.1466 306.858 28.447C310.088 26.8862 313.37 25.8751 316.665 25.4628C323.269 24.5793 329.925 26.307 336.299 30.2435C338.777 31.7847 341.216 33.6498 343.585 35.8782C343.837 36.0942 344.081 36.3887 344.35 36.4476C344.737 36.5457 345.155 36.1629 345.346 35.3775C345.498 34.7984 345.476 34.0425 345.32 33.4731C345.142 32.8252 344.842 32.4228 344.576 31.981C341.798 27.4948 338.699 24.0688 335.495 21.4478C333.269 19.6219 330.982 18.1985 328.66 17.1383C325.343 15.6364 321.961 14.8707 318.578 15.0179C315.274 15.1456 311.979 16.0389 308.762 17.7175C303.293 20.5545 298.058 25.6788 293.406 32.7663C291.728 35.3186 290.128 38.1164 288.615 41.1399C288.437 41.5424 288.211 41.8565 288.085 42.3571C287.985 42.7302 287.968 43.221 288.063 43.6038C288.124 43.8885 288.25 44.0849 288.381 44.1634Z" fill="#F8981D"/>
<path d="M115 43V107H99V43H115Z" fill="#151946"/>
<path d="M116.892 38.5807C114.004 41.3294 114.365 46.876 114.365 46.876H99.7158C99.7158 46.876 100.025 41.3294 97.1883 38.5807C94.0419 35.9301 92.0302 32.1015 92.0302 27.8311C92.0302 19.9775 98.7357 13.5965 106.989 13.5965C115.242 13.5965 121.947 19.9775 121.947 27.8311C121.947 32.1015 119.987 35.9301 116.892 38.5807Z" fill="#36A18A"/>
<path d="M114.777 51.2446C114.777 51.9809 114.158 52.5699 113.385 52.5699H100.644C99.8705 52.5699 99.2516 51.9809 99.2516 51.2446C99.2516 50.5083 99.8705 49.9193 100.644 49.9193H113.333C114.107 49.9193 114.777 50.5083 114.777 51.2446Z" fill="#E5E5E5"/>
<path d="M112.869 56.7421C112.869 57.4784 112.25 58.0674 111.476 58.0674H102.553C101.779 58.0674 101.16 57.4784 101.16 56.7421C101.16 56.0059 101.779 55.4168 102.553 55.4168H111.476C112.25 55.4168 112.869 56.0059 112.869 56.7421Z" fill="#E5E5E5"/>
<path d="M117.666 39.0715C121.019 36.1755 122.927 32.1015 122.927 27.8311C122.927 19.4867 115.757 12.6639 106.989 12.6639C98.22 12.6639 91.0502 19.4867 91.0502 27.8311C91.0502 32.1997 93.0619 36.3719 96.4662 39.2188C98.9937 41.624 98.7358 46.7288 98.7358 46.7779C98.7358 47.0233 98.8389 47.2687 98.9937 47.465C99.2 47.6614 99.4579 47.7596 99.7158 47.7596H114.313C114.571 47.7596 114.829 47.6614 115.035 47.465C115.242 47.2687 115.293 47.0233 115.293 46.7779C115.293 46.7288 115.035 41.624 117.563 39.2188C117.614 39.1697 117.666 39.1206 117.666 39.0715ZM116.222 37.8444C116.118 37.8935 116.067 37.9917 116.015 38.0898C113.746 40.3968 113.385 44.1764 113.333 45.9434H100.696C100.644 44.1273 100.232 40.2005 97.8073 37.8935C94.764 35.3411 93.0103 31.7088 93.0103 27.8802C93.0103 20.5175 99.3031 14.5782 106.989 14.5782C114.726 14.5782 120.967 20.5665 120.967 27.8802C120.967 31.6597 119.265 35.3411 116.222 37.8444Z" fill="#151946"/>
<path d="M106.989 16.5907C106.473 16.5907 106.009 16.9834 106.009 17.5233C106.009 18.0142 106.421 18.4559 106.989 18.4559C112.766 18.4559 117.46 22.9226 117.46 28.4202C117.46 28.911 117.872 29.3528 118.44 29.3528C118.955 29.3528 119.42 28.9601 119.42 28.4202C119.42 21.8919 113.849 16.5907 106.989 16.5907Z" fill="#151946"/>
<path d="M107.969 7.21547V0.932612C107.969 0.441764 107.556 0 106.989 0C106.473 0 106.009 0.392679 106.009 0.932612V7.26456C106.009 7.75541 106.421 8.19717 106.989 8.19717C107.556 8.14809 107.969 7.75541 107.969 7.21547Z" fill="#151946"/>
<path d="M123.237 4.66308C122.772 4.36857 122.205 4.51582 121.895 4.9085L118.233 10.1606C117.924 10.6023 118.078 11.1423 118.491 11.4368C118.646 11.535 118.852 11.584 119.007 11.584C119.316 11.584 119.626 11.4368 119.832 11.1914L123.494 5.93929C123.804 5.54661 123.649 4.95759 123.237 4.66308Z" fill="#151946"/>
<path d="M95.3314 11.3877C95.4862 11.3877 95.6925 11.3386 95.8472 11.2404C96.3115 10.9459 96.4146 10.406 96.1567 9.96421L92.5976 4.66305C92.2882 4.22128 91.7208 4.12311 91.2565 4.36854C90.7923 4.66305 90.6892 5.20298 90.9471 5.64474L94.5061 10.9459C94.7125 11.2404 95.0219 11.3877 95.3314 11.3877Z" fill="#151946"/>
<path d="M81.6625 15.8053L87.4911 18.7995C87.6459 18.8977 87.8006 18.8977 87.9554 18.8977C88.3164 18.8977 88.6259 18.7013 88.8322 18.4068C89.0901 17.965 88.9354 17.376 88.4196 17.1306L82.591 14.1364C82.1268 13.891 81.5078 14.0383 81.2499 14.5291C81.0436 15.02 81.1983 15.5599 81.6625 15.8053Z" fill="#151946"/>
<path d="M126.022 18.9468C126.177 18.9468 126.331 18.8977 126.486 18.8486L132.315 15.8544C132.779 15.609 132.985 15.0691 132.727 14.5782C132.469 14.1364 131.902 13.9401 131.386 14.1855L125.558 17.1797C125.093 17.4251 124.887 17.9651 125.145 18.4559C125.3 18.7504 125.661 18.9468 126.022 18.9468Z" fill="#151946"/>
</svg>
